<?xml version="1.0" encoding="UTF-8"?>
<!DOCTYPE svg PUBLIC "-//W3C//DTD SVG 1.1//EN" "http://www.w3.org/Graphics/SVG/1.1/DTD/svg11.dtd">
<svg xmlns="http://www.w3.org/2000/svg" version="1.1" width="1113px" height="1373px" style="shape-rendering:geometricPrecision; text-rendering:geometricPrecision; image-rendering:optimizeQuality; fill-rule:evenodd; clip-rule:evenodd" xmlns:xlink="http://www.w3.org/1999/xlink">
<g><path style="opacity:0.992" fill="#3399db" d="M 504.5,-0.5 C 538.833,-0.5 573.167,-0.5 607.5,-0.5C 700.479,2.82878 791.812,17.3288 881.5,43C 934.014,58.4285 983.014,81.0952 1028.5,111C 1050.96,127.126 1070.46,146.293 1087,168.5C 1100.34,188.364 1108.84,210.03 1112.5,233.5C 1112.5,535.167 1112.5,836.833 1112.5,1138.5C 1107.42,1169.99 1094.25,1197.66 1073,1221.5C 1040.98,1254.6 1003.81,1280.44 961.5,1299C 894.783,1327.68 825.45,1347.35 753.5,1358C 704.932,1365.38 656.265,1370.21 607.5,1372.5C 573.167,1372.5 538.833,1372.5 504.5,1372.5C 411.521,1369.17 320.188,1354.67 230.5,1329C 177.986,1313.57 128.986,1290.9 83.5,1261C 60,1244.17 39.8333,1224 23,1200.5C 10.8959,1181.34 3.06259,1160.67 -0.5,1138.5C -0.5,836.833 -0.5,535.167 -0.5,233.5C 4.66634,201.5 18.1663,173.5 40,149.5C 71.8666,116.971 108.7,91.4706 150.5,73C 217.217,44.319 286.55,24.6523 358.5,14C 407.068,6.62176 455.735,1.78843 504.5,-0.5 Z M 554.5,99.5 C 636.031,99.7531 716.698,108.253 796.5,125C 850.489,136.55 901.822,155.217 950.5,181C 968.06,191.211 983.893,203.711 998,218.5C 1005.57,227.395 1010.41,237.561 1012.5,249C 1010.41,260.439 1005.57,270.605 998,279.5C 982.08,296.366 963.913,310.2 943.5,321C 900.816,342.673 856.149,359.007 809.5,370C 667.06,401.308 523.726,406.308 379.5,385C 318.145,376.323 258.812,360.323 201.5,337C 177.737,326.625 155.404,313.958 134.5,299C 122.16,289.333 111.994,277.833 104,264.5C 98.0853,251.26 99.4186,238.594 108,226.5C 124.609,205.617 144.776,189.117 168.5,177C 215.287,153.515 264.287,136.181 315.5,125C 394.452,108.439 474.118,99.9391 554.5,99.5 Z M 99.5,397.5 C 145.823,425.153 195.156,445.986 247.5,460C 348.552,486.96 451.386,499.793 556,498.5C 660.614,499.793 763.448,486.96 864.5,460C 916.728,446.129 965.895,425.295 1012,397.5C 1012.97,449.528 1012.64,501.528 1011,553.5C 1005.73,568.446 996.901,580.946 984.5,591C 959.01,611.088 931.01,627.088 900.5,639C 833.971,664.132 765.304,680.465 694.5,688C 583.46,700.251 472.794,697.584 362.5,680C 302.268,670.444 244.268,653.444 188.5,629C 160.958,616.488 136.458,599.655 115,578.5C 106.766,569.364 101.766,558.697 100,546.5C 99.5,496.834 99.3333,447.168 99.5,397.5 Z M 99.5,695.5 C 148.349,724.292 200.349,745.792 255.5,760C 354.053,785.321 454.22,797.488 556,796.5C 657.78,797.488 757.947,785.321 856.5,760C 911.517,745.891 963.35,724.391 1012,695.5C 1012.97,747.528 1012.64,799.528 1011,851.5C 1009.05,858.058 1006.05,864.058 1002,869.5C 986.575,887.782 968.408,902.615 947.5,914C 894.017,941.495 837.683,960.828 778.5,972C 626.705,1001.04 475.039,1000.37 323.5,970C 284.907,961.691 247.241,950.357 210.5,936C 181.127,924.49 154.127,909.157 129.5,890C 118.395,880.908 109.562,870.074 103,857.5C 101.263,853.339 100.263,849.005 100,844.5C 99.5,794.834 99.3333,745.168 99.5,695.5 Z M 99.5,992.5 C 142.431,1018.29 188.097,1038.12 236.5,1052C 315.968,1074.52 396.968,1087.86 479.5,1092C 596.44,1099.15 712.106,1090.15 826.5,1065C 876.986,1053.51 925.653,1036.84 972.5,1015C 986.236,1008.39 999.403,1000.89 1012,992.5C 1012.67,1036.17 1012.67,1079.83 1012,1123.5C 1010.08,1134.76 1005.41,1144.76 998,1153.5C 982.08,1170.37 963.913,1184.2 943.5,1195C 894.029,1220.16 842.029,1238.16 787.5,1249C 633.167,1280.33 478.833,1280.33 324.5,1249C 269.971,1238.16 217.971,1220.16 168.5,1195C 144.776,1182.88 124.609,1166.38 108,1145.5C 103.65,1138.8 100.983,1131.46 100,1123.5C 99.5,1079.83 99.3333,1036.17 99.5,992.5 Z"/></g>
</svg>
